<svg width="33" height="33" viewBox="0 0 33 33" fill="none" xmlns="http://www.w3.org/2000/svg">
<path fill-rule="evenodd" clip-rule="evenodd" d="M10.4535 1.5277C12.0175 1.4557 12.5162 1.4397 16.5002 1.4397C20.4842 1.4397 20.9828 1.45703 22.5455 1.5277C24.1082 1.59836 25.1748 1.8477 26.1082 2.20903C27.0855 2.57836 27.9722 3.1557 28.7055 3.90236C29.4522 4.63436 30.0282 5.5197 30.3962 6.49836C30.7588 7.4317 31.0068 8.49836 31.0788 10.0584C31.1508 11.625 31.1668 12.1237 31.1668 16.1064C31.1668 20.0904 31.1495 20.589 31.0788 22.153C31.0082 23.713 30.7588 24.7797 30.3962 25.713C30.0282 26.6918 29.4512 27.5786 28.7055 28.3117C27.9722 29.0584 27.0855 29.6344 26.1082 30.0024C25.1748 30.365 24.1082 30.613 22.5482 30.685C20.9828 30.757 20.4842 30.773 16.5002 30.773C12.5162 30.773 12.0175 30.7557 10.4535 30.685C8.8935 30.6144 7.82683 30.365 6.8935 30.0024C5.91472 29.6343 5.02792 29.0574 4.29483 28.3117C3.54867 27.5793 2.97125 26.6929 2.60283 25.7144C2.2415 24.781 1.9935 23.7144 1.9215 22.1544C1.8495 20.5877 1.8335 20.089 1.8335 16.1064C1.8335 12.1224 1.85083 11.6237 1.9215 10.061C1.99216 8.49836 2.2415 7.4317 2.60283 6.49836C2.97179 5.51981 3.54965 4.63345 4.29616 3.90103C5.02822 3.15503 5.91413 2.57762 6.89216 2.20903C7.8255 1.8477 8.89216 1.5997 10.4522 1.5277H10.4535ZM22.4268 4.1677C20.8802 4.09703 20.4162 4.08236 16.5002 4.08236C12.5842 4.08236 12.1202 4.09703 10.5735 4.1677C9.14283 4.23303 8.36683 4.4717 7.8495 4.67303C7.1655 4.9397 6.67616 5.2557 6.16283 5.76903C5.67622 6.24243 5.30174 6.81874 5.06683 7.4557C4.8655 7.97303 4.62683 8.74903 4.5615 10.1797C4.49083 11.7264 4.47616 12.1904 4.47616 16.1064C4.47616 20.0224 4.49083 20.4864 4.5615 22.033C4.62683 23.4637 4.8655 24.2397 5.06683 24.757C5.3015 25.393 5.67616 25.9704 6.16283 26.4437C6.63616 26.9304 7.2135 27.305 7.8495 27.5397C8.36683 27.741 9.14283 27.9797 10.5735 28.045C12.1202 28.1157 12.5828 28.1304 16.5002 28.1304C20.4175 28.1304 20.8802 28.1157 22.4268 28.045C23.8575 27.9797 24.6335 27.741 25.1508 27.5397C25.8348 27.273 26.3242 26.957 26.8375 26.4437C27.3242 25.9704 27.6988 25.393 27.9335 24.757C28.1348 24.2397 28.3735 23.4637 28.4388 22.033C28.5095 20.4864 28.5242 20.0224 28.5242 16.1064C28.5242 12.1904 28.5095 11.7264 28.4388 10.1797C28.3735 8.74903 28.1348 7.97303 27.9335 7.4557C27.6668 6.7717 27.3508 6.28236 26.8375 5.76903C26.3641 5.28246 25.7878 4.90798 25.1508 4.67303C24.6335 4.4717 23.8575 4.23303 22.4268 4.1677V4.1677ZM14.6268 20.6277C15.673 21.0632 16.838 21.122 17.9227 20.794C19.0075 20.466 19.9447 19.7716 20.5743 18.8294C21.2039 17.8871 21.4869 16.7555 21.3749 15.6278C21.2629 14.5001 20.7628 13.4463 19.9602 12.6464C19.4485 12.135 18.8298 11.7434 18.1486 11.4999C17.4674 11.2563 16.7407 11.1668 16.0208 11.2379C15.3009 11.3089 14.6057 11.5386 13.9852 11.9105C13.3648 12.2825 12.8345 12.7874 12.4326 13.3888C12.0306 13.9903 11.7671 14.6734 11.6608 15.389C11.5546 16.1045 11.6084 16.8348 11.8182 17.5271C12.0281 18.2193 12.3888 18.8565 12.8745 19.3927C13.3601 19.9288 13.9586 20.3506 14.6268 20.6277ZM11.1695 10.7757C11.8695 10.0757 12.7006 9.52037 13.6152 9.14151C14.5299 8.76266 15.5102 8.56766 16.5002 8.56766C17.4902 8.56766 18.4705 8.76266 19.3851 9.14151C20.2997 9.52037 21.1308 10.0757 21.8308 10.7757C22.5309 11.4757 23.0862 12.3068 23.465 13.2214C23.8439 14.1361 24.0389 15.1164 24.0389 16.1064C24.0389 17.0964 23.8439 18.0767 23.465 18.9913C23.0862 19.9059 22.5309 20.737 21.8308 21.437C20.417 22.8508 18.4995 23.6451 16.5002 23.6451C14.5008 23.6451 12.5833 22.8508 11.1695 21.437C9.75571 20.0232 8.96146 18.1058 8.96146 16.1064C8.96146 14.107 9.75571 12.1895 11.1695 10.7757V10.7757ZM25.7108 9.69036C25.8843 9.52672 26.0232 9.32994 26.1192 9.11166C26.2153 8.89339 26.2666 8.65806 26.2701 8.4196C26.2735 8.18115 26.2291 7.94443 26.1395 7.72344C26.0498 7.50246 25.9167 7.30171 25.7481 7.13308C25.5795 6.96445 25.3787 6.83137 25.1577 6.74172C24.9368 6.65207 24.7 6.60766 24.4616 6.61114C24.2231 6.61462 23.9878 6.6659 23.7695 6.76196C23.5513 6.85802 23.3545 6.99689 23.1908 7.17036C22.8726 7.50774 22.6983 7.95586 22.7051 8.4196C22.7119 8.88335 22.8991 9.3262 23.227 9.65415C23.555 9.98211 23.9978 10.1693 24.4616 10.1761C24.9253 10.1829 25.3735 10.0086 25.7108 9.69036V9.69036Z" fill="white"/>
</svg>
