<svg width="33" height="33" viewBox="0 0 33 33" fill="none" xmlns="http://www.w3.org/2000/svg">
<g clip-path="url(#clip0_1_1418)">
<path d="M32.0242 6.68913C30.9108 7.18247 29.7148 7.5158 28.4575 7.66647C29.7548 6.89019 30.7254 5.66842 31.1882 4.22913C29.9693 4.95312 28.6353 5.46273 27.2442 5.7358C26.3087 4.73695 25.0696 4.0749 23.7193 3.85243C22.369 3.62996 20.983 3.85952 19.7765 4.50547C18.57 5.15142 17.6105 6.17762 17.0471 7.42474C16.4836 8.67186 16.3476 10.0701 16.6602 11.4025C14.1904 11.2785 11.7743 10.6365 9.56874 9.51834C7.36314 8.40015 5.4173 6.83068 3.85751 4.9118C3.32418 5.8318 3.01751 6.89847 3.01751 8.03447C3.01692 9.05713 3.26876 10.0641 3.75068 10.9661C4.23261 11.8681 4.92973 12.6372 5.78018 13.2051C4.79388 13.1738 3.82934 12.9072 2.96685 12.4278V12.5078C2.96675 13.9421 3.46289 15.3323 4.37109 16.4425C5.27929 17.5526 6.54361 18.3144 7.94951 18.5985C7.03456 18.8461 6.0753 18.8826 5.14418 18.7051C5.54084 19.9393 6.31351 21.0185 7.354 21.7917C8.3945 22.5649 9.65073 22.9934 10.9468 23.0171C8.74662 24.7443 6.02936 25.6813 3.23218 25.6771C2.73669 25.6773 2.24161 25.6483 1.74951 25.5905C4.58881 27.416 7.89397 28.3849 11.2695 28.3811C22.6962 28.3811 28.9428 18.9171 28.9428 10.7091C28.9428 10.4425 28.9362 10.1731 28.9242 9.90647C30.1392 9.02777 31.1881 7.93966 32.0215 6.69313L32.0242 6.68913V6.68913Z" fill="white"/>
</g>
<defs>
<clipPath id="clip0_1_1418">
<rect width="32" height="32" fill="white" transform="translate(0.5 0.106445)"/>
</clipPath>
</defs>
</svg>
