<svg width="71" height="70" viewBox="0 0 71 70" fill="none" xmlns="http://www.w3.org/2000/svg">
<path d="M35.5002 61.2501C31.8162 58.1078 28.4015 54.6628 25.2918 50.9513C20.6252 45.3776 15.0835 37.0768 15.0835 29.1668C15.0794 20.9054 20.0542 13.4558 27.6866 10.2942C35.319 7.13252 44.1045 8.88204 49.9435 14.7263C53.7832 18.5489 55.9341 23.7487 55.9169 29.1668C55.9169 37.0768 50.3752 45.3776 45.7085 50.9513C42.5988 54.6628 39.1841 58.1078 35.5002 61.2501ZM35.5002 20.4168C32.3741 20.4168 29.4855 22.0845 27.9224 24.7918C26.3594 27.499 26.3594 30.8345 27.9224 33.5418C29.4855 36.249 32.3741 37.9168 35.5002 37.9168C40.3327 37.9168 44.2502 33.9992 44.2502 29.1668C44.2502 24.3343 40.3327 20.4168 35.5002 20.4168Z" fill="#0336FF"/>
</svg>
