<svg width="51" height="51" viewBox="0 0 51 51" fill="none" xmlns="http://www.w3.org/2000/svg">
<path d="M40.2 19.5189C40.2 19.5189 39.9 17.4189 39 16.5189C37.9 15.3189 36.6 15.3189 36 15.2189C31.8 14.9189 25.5 14.9189 25.5 14.9189C25.5 14.9189 19.2 14.9189 15 15.2189C14.4 15.3189 13.1 15.3189 12 16.5189C11.1 17.4189 10.8 19.5189 10.8 19.5189C10.8 19.5189 10.5 21.9189 10.5 24.3189V26.5189C10.5 28.9189 10.8 31.4189 10.8 31.4189C10.8 31.4189 11.1 33.5189 12 34.4189C13.1 35.6189 14.6 35.6189 15.3 35.7189C17.7 35.8189 25.5 35.9189 25.5 35.9189C25.5 35.9189 31.8 35.9189 36 35.6189C36.6 35.5189 37.9 35.5189 39 34.3189C39.9 33.4189 40.2 31.3189 40.2 31.3189C40.2 31.3189 40.5 28.9189 40.5 26.5189V24.3189C40.5 21.9189 40.2 19.5189 40.2 19.5189V19.5189ZM22.4 29.3189V20.9189L30.5 25.1189L22.4 29.3189V29.3189Z" fill="white"/>
</svg>
