<svg width="124" height="21" viewBox="0 0 124 21" fill="none" xmlns="http://www.w3.org/2000/svg">
<path d="M10.2535 0.212891C6.83707 0.212891 4.83333 1.70003 4.83333 5.08861V8.07003H0.5V11.6415H4.83333V20.2129H9.16667V11.6415H12.6333L13.5 8.07003H9.16667V5.69289C9.16667 4.41646 9.67193 3.78432 11.1253 3.78432H13.5V0.359319C13.0892 0.313605 11.8923 0.212891 10.2535 0.212891Z" fill="#EEEEEE"/>
<path d="M49.5 4.13339C48.7089 4.48904 47.9178 4.70243 46.9829 4.84469C47.8459 4.27565 48.5651 3.49323 48.9247 2.49741C48.0616 2.99532 47.1267 3.35097 46.1918 3.56435C45.4007 2.7108 44.25 2.21289 43.0274 2.21289C40.6541 2.21289 38.6404 4.13339 38.6404 6.5518C38.6404 6.90745 38.7123 7.19197 38.7842 7.54762C35.1884 7.40536 31.9521 5.62712 29.7945 3.06645C29.4349 3.56435 29.2192 4.27565 29.2192 5.05808C29.2192 6.5518 30.0103 7.90327 31.161 8.61456C30.4418 8.61456 29.7945 8.40117 29.2192 8.04553V8.11666C29.2192 10.1794 30.7295 11.9577 32.7432 12.3133C32.3836 12.3844 32.024 12.4556 31.5925 12.4556C31.3048 12.4556 31.0171 12.4556 30.8014 12.3844C31.3767 14.0916 32.9589 15.3719 34.9007 15.3719C33.3904 16.51 31.5205 17.2213 29.5068 17.2213C29.1473 17.2213 28.7877 17.2213 28.5 17.1501C30.226 18.5016 32.5274 19.2129 34.9726 19.2129C42.9555 19.2129 47.3425 12.669 47.3425 6.97858V6.40954C48.2055 5.76938 48.9247 5.05808 49.5 4.13339Z" fill="#EEEEEE"/>
<path fill-rule="evenodd" clip-rule="evenodd" d="M73.3183 9.48559V12.3947H78.1062C77.9244 13.6674 76.6516 16.031 73.3183 16.031C70.4092 16.031 68.0456 13.6068 68.0456 10.6977C68.0456 7.78863 70.4092 5.36439 73.3183 5.36439C74.9547 5.36439 76.0456 6.09166 76.7122 6.69772L79.0153 4.45531C77.5001 3.06137 75.6213 2.21289 73.3183 2.21289C68.6517 2.21289 64.8335 6.03106 64.8335 10.6977C64.8335 15.3644 68.6517 19.1825 73.3183 19.1825C78.2274 19.1825 81.4395 15.728 81.4395 10.8795C81.4395 10.3341 81.3789 9.90983 81.3183 9.48559H73.3183Z" fill="#EEEEEE"/>
<path fill-rule="evenodd" clip-rule="evenodd" d="M91.4997 9.48576H89.0755V7.06152H86.6513V9.48576H84.2271V11.91H86.6513V14.3342H89.0755V11.91H91.4997V9.48576Z" fill="#EEEEEE"/>
<path d="M107.765 1.21289C107.468 1.21266 107.174 1.27146 106.899 1.38593C106.624 1.5004 106.374 1.6683 106.164 1.88002C105.954 2.09175 105.787 2.34317 105.673 2.61991C105.559 2.89665 105.5 3.19329 105.5 3.49289C105.5 4.7538 106.514 5.7988 107.763 5.7988C109.013 5.7988 110.028 4.7538 110.028 3.49462C110.029 3.19506 109.97 2.89839 109.857 2.62157C109.743 2.34475 109.576 2.0932 109.366 1.8813C109.156 1.6694 108.906 1.5013 108.632 1.38661C108.357 1.27192 108.063 1.21289 107.765 1.21289V1.21289ZM118.816 7.25835C116.914 7.25835 115.826 8.26016 115.303 9.2568H115.248V7.52694H111.5V20.2129H115.406V13.9334C115.406 12.2787 115.529 10.6792 117.562 10.6792C119.565 10.6792 119.594 12.5663 119.594 14.0379V20.2129H123.5V13.2451C123.5 9.83544 122.772 7.25835 118.816 7.25835ZM105.811 7.52607V20.2129H109.72V7.52607H105.811V7.52607Z" fill="#EEEEEE"/>
</svg>
