<svg width="134" height="56" viewBox="0 0 134 56" fill="none" xmlns="http://www.w3.org/2000/svg">
<path d="M10.2328 24.6413C11.1678 24.6413 11.9605 24.5261 12.6109 24.2957C13.2749 24.0518 13.817 23.7198 14.237 23.2998C14.6571 22.8797 14.962 22.3919 15.1517 21.8363C15.3414 21.2671 15.4363 20.6573 15.4363 20.0069C15.4363 18.706 15.0094 17.6897 14.1557 16.958C13.3156 16.2262 12.0079 15.8604 10.2328 15.8604H7.4684V24.6413H10.2328ZM24.827 40.3331H18.6072C17.4553 40.3331 16.6287 39.8995 16.1274 39.0322L11.2084 30.4343C10.9781 30.0684 10.7206 29.8041 10.436 29.6415C10.1515 29.4654 9.74494 29.3773 9.21645 29.3773H7.4684V40.3331H0.598145V10.7178H10.2328C12.3738 10.7178 14.1964 10.9414 15.7005 11.3886C17.2182 11.8222 18.4513 12.432 19.3999 13.218C20.362 14.0039 21.0599 14.9321 21.4935 16.0026C21.9271 17.0732 22.1439 18.2385 22.1439 19.4988C22.1439 20.4609 22.0152 21.3688 21.7577 22.2225C21.5003 23.0762 21.1208 23.8689 20.6195 24.6006C20.1181 25.3188 19.4947 25.9625 18.7494 26.5316C18.0177 27.1008 17.1708 27.5683 16.2087 27.9341C16.6558 28.1645 17.0759 28.4558 17.4689 28.8082C17.8619 29.1469 18.2142 29.5534 18.5259 30.0277L24.827 40.3331Z" fill="#0336FF"/>
<path d="M38.3052 27.2634C38.3052 26.762 38.2374 26.2742 38.1019 25.7999C37.9799 25.3256 37.7699 24.9055 37.4718 24.5397C37.1872 24.1602 36.8078 23.8553 36.3335 23.625C35.8592 23.3946 35.2833 23.2794 34.6058 23.2794C33.4133 23.2794 32.4783 23.625 31.8008 24.3161C31.1232 24.9936 30.6761 25.976 30.4592 27.2634H38.3052ZM30.3779 30.9221C30.5812 32.6837 31.1165 33.9642 31.9837 34.7637C32.851 35.5497 33.9689 35.9427 35.3375 35.9427C36.0693 35.9427 36.6994 35.8546 37.2279 35.6784C37.7563 35.5023 38.2238 35.3058 38.6304 35.089C39.0504 34.8721 39.4299 34.6757 39.7686 34.4995C40.121 34.3233 40.4868 34.2352 40.8663 34.2352C41.3676 34.2352 41.7471 34.4182 42.0045 34.7841L43.8339 37.0403C43.1834 37.7856 42.4788 38.3953 41.72 38.8696C40.9747 39.3304 40.2023 39.6962 39.4028 39.9672C38.6168 40.2247 37.8241 40.4009 37.0246 40.4957C36.2387 40.6041 35.4866 40.6583 34.7684 40.6583C33.2914 40.6583 31.9024 40.4212 30.6015 39.9469C29.3142 39.4591 28.1827 38.7409 27.207 37.7923C26.2449 36.8438 25.4793 35.6649 24.9102 34.2556C24.3546 32.8463 24.0768 31.2066 24.0768 29.3366C24.0768 27.9274 24.314 26.5926 24.7882 25.3324C25.2761 24.0721 25.9671 22.9678 26.8615 22.0192C27.7694 21.0706 28.8602 20.3186 30.134 19.763C31.4213 19.2074 32.8713 18.9296 34.4838 18.9296C35.8796 18.9296 37.1533 19.1464 38.3052 19.5801C39.4705 20.0137 40.4665 20.6438 41.2931 21.4704C42.1333 22.297 42.7837 23.3133 43.2444 24.5193C43.7187 25.7118 43.9558 27.0669 43.9558 28.5846C43.9558 29.0588 43.9355 29.445 43.8949 29.7432C43.8542 30.0413 43.7797 30.2784 43.6713 30.4546C43.5629 30.6307 43.4138 30.7527 43.2241 30.8204C43.0479 30.8882 42.8176 30.9221 42.533 30.9221H30.3779Z" fill="#0336FF"/>
<path d="M59.8941 24.9055C59.4198 24.377 58.9049 24.0112 58.3493 23.8079C57.7937 23.5911 57.2111 23.4827 56.6013 23.4827C56.0186 23.4827 55.4833 23.5979 54.9955 23.8282C54.5077 24.0586 54.0808 24.4312 53.715 24.9462C53.3626 25.4476 53.0848 26.1048 52.8816 26.9178C52.6783 27.7309 52.5767 28.7133 52.5767 29.8651C52.5767 30.9763 52.658 31.9113 52.8206 32.6701C52.9832 33.429 53.2068 34.0455 53.4914 34.5198C53.7895 34.9805 54.1418 35.3125 54.5483 35.5158C54.9549 35.7191 55.4088 35.8207 55.9102 35.8207C56.3709 35.8207 56.7842 35.78 57.1501 35.6987C57.5295 35.6039 57.8751 35.4751 58.1867 35.3125C58.4984 35.1499 58.7897 34.9467 59.0607 34.7028C59.3453 34.4453 59.6231 34.1539 59.8941 33.8287V24.9055ZM66.1952 9.90479V40.3331H62.2926C61.5067 40.3331 60.9917 39.9808 60.7478 39.2761L60.26 37.6704C59.8399 38.1176 59.3995 38.5241 58.9388 38.89C58.4781 39.2558 57.9767 39.5743 57.4346 39.8453C56.9062 40.1028 56.3303 40.2992 55.7069 40.4347C55.0971 40.5838 54.4331 40.6583 53.715 40.6583C52.6173 40.6583 51.601 40.4144 50.666 39.9266C49.731 39.4388 48.9247 38.7341 48.2472 37.8127C47.5697 36.8912 47.0344 35.7665 46.6414 34.4385C46.262 33.097 46.0723 31.5725 46.0723 29.8651C46.0723 28.2932 46.2891 26.8365 46.7227 25.495C47.1564 24.1399 47.7662 22.9745 48.5521 21.9989C49.3516 21.0097 50.3069 20.2373 51.4181 19.6817C52.5293 19.1261 53.7556 18.8483 55.0971 18.8483C56.1948 18.8483 57.1162 19.0041 57.8615 19.3158C58.6068 19.6275 59.2843 20.0476 59.8941 20.576V9.90479H66.1952Z" fill="#0336FF"/>
<path d="M3.05309 44.2088V46.7619H6.49224V48.6391H3.05309V51.2448H7.54351V53.1971H0.5V42.2564H7.54351V44.2088H3.05309Z" fill="#FFA500"/>
<path d="M16.2877 53.1971H14.05C13.8848 53.1971 13.7496 53.1571 13.6445 53.077C13.5444 52.9969 13.4643 52.9018 13.4042 52.7917L12.0151 50.4038C11.99 50.4889 11.96 50.569 11.9249 50.6441C11.8899 50.7191 11.8524 50.7892 11.8123 50.8543L10.6709 52.7917C10.6008 52.8918 10.5182 52.9844 10.4231 53.0695C10.328 53.1546 10.2054 53.1971 10.0552 53.1971H7.98268L10.5958 49.1723L8.08781 45.4102H10.3255C10.4907 45.4102 10.6109 45.4328 10.6859 45.4778C10.766 45.5179 10.8361 45.5879 10.8962 45.6881L12.2854 47.9934C12.3154 47.9032 12.353 47.8156 12.398 47.7305C12.4431 47.6404 12.4931 47.5503 12.5482 47.4602L13.5394 45.7256C13.6095 45.6155 13.6821 45.5354 13.7572 45.4853C13.8373 45.4353 13.9349 45.4102 14.05 45.4102H16.1826L13.6746 49.0672L16.2877 53.1971Z" fill="#FFA500"/>
<path d="M19.3356 51.0796C19.5108 51.2698 19.701 51.405 19.9063 51.4851C20.1115 51.5652 20.3268 51.6052 20.552 51.6052C20.7673 51.6052 20.965 51.5627 21.1453 51.4776C21.3255 51.3925 21.4807 51.2573 21.6108 51.0721C21.746 50.8818 21.8511 50.6365 21.9262 50.3362C22.0013 50.0358 22.0388 49.6704 22.0388 49.2399C22.0388 48.8294 22.0088 48.4839 21.9487 48.2036C21.8887 47.9233 21.8036 47.698 21.6934 47.5278C21.5883 47.3526 21.4606 47.2274 21.3105 47.1523C21.1603 47.0772 20.9926 47.0397 20.8074 47.0397C20.4669 47.0397 20.1866 47.1023 19.9663 47.2274C19.7461 47.3526 19.5358 47.5353 19.3356 47.7756V51.0796ZM19.1929 46.3714C19.4983 46.046 19.8437 45.7807 20.2292 45.5754C20.6196 45.3652 21.0827 45.26 21.6183 45.26C22.0238 45.26 22.3993 45.3502 22.7447 45.5304C23.0901 45.7106 23.388 45.9709 23.6383 46.3113C23.8886 46.6517 24.0838 47.0697 24.224 47.5653C24.3692 48.0559 24.4418 48.6141 24.4418 49.2399C24.4418 49.8256 24.3592 50.3662 24.194 50.8618C24.0338 51.3574 23.806 51.7879 23.5106 52.1534C23.2203 52.5188 22.8699 52.8042 22.4594 53.0094C22.0539 53.2147 21.6033 53.3173 21.1077 53.3173C20.7022 53.3173 20.3618 53.2597 20.0865 53.1446C19.8112 53.0294 19.5609 52.8743 19.3356 52.679V55.6676H17.0078V45.4102H18.4495C18.7399 45.4102 18.9301 45.5404 19.0202 45.8007L19.1929 46.3714Z" fill="#FFA500"/>
<path d="M27.974 41.9561V53.1971H25.6461V41.9561H27.974Z" fill="#FFA500"/>
<path d="M33.1367 45.2901C33.7274 45.2901 34.2655 45.3827 34.7511 45.5679C35.2367 45.7531 35.6522 46.0185 35.9976 46.3639C36.3481 46.7093 36.6184 47.1298 36.8086 47.6254C37.0039 48.116 37.1015 48.6692 37.1015 49.2849C37.1015 49.9057 37.0039 50.4663 36.8086 50.9669C36.6184 51.4625 36.3481 51.8856 35.9976 52.236C35.6522 52.5814 35.2367 52.8492 34.7511 53.0395C34.2655 53.2247 33.7274 53.3173 33.1367 53.3173C32.541 53.3173 31.9978 53.2247 31.5072 53.0395C31.0216 52.8492 30.6011 52.5814 30.2457 52.236C29.8953 51.8856 29.6224 51.4625 29.4272 50.9669C29.237 50.4663 29.1418 49.9057 29.1418 49.2849C29.1418 48.6692 29.237 48.116 29.4272 47.6254C29.6224 47.1298 29.8953 46.7093 30.2457 46.3639C30.6011 46.0185 31.0216 45.7531 31.5072 45.5679C31.9978 45.3827 32.541 45.2901 33.1367 45.2901ZM33.1367 51.5902C33.6723 51.5902 34.0653 51.4025 34.3156 51.027C34.5709 50.6466 34.6986 50.0709 34.6986 49.2999C34.6986 48.529 34.5709 47.9558 34.3156 47.5804C34.0653 47.2049 33.6723 47.0172 33.1367 47.0172C32.586 47.0172 32.183 47.2049 31.9277 47.5804C31.6724 47.9558 31.5448 48.529 31.5448 49.2999C31.5448 50.0709 31.6724 50.6466 31.9277 51.027C32.183 51.4025 32.586 51.5902 33.1367 51.5902Z" fill="#FFA500"/>
<path d="M40.4513 46.6117C40.6916 46.1912 40.967 45.8608 41.2773 45.6205C41.5927 45.3802 41.9532 45.26 42.3586 45.26C42.7091 45.26 42.9944 45.3426 43.2147 45.5078L43.0645 47.2199C43.0395 47.3301 42.9969 47.4051 42.9368 47.4452C42.8818 47.4852 42.8042 47.5053 42.7041 47.5053C42.664 47.5053 42.6115 47.5028 42.5464 47.4978C42.4813 47.4927 42.4137 47.4877 42.3436 47.4827C42.2735 47.4727 42.201 47.4652 42.1259 47.4602C42.0558 47.4502 41.9907 47.4452 41.9306 47.4452C41.5902 47.4452 41.3174 47.5353 41.1121 47.7155C40.9119 47.8957 40.7417 48.146 40.6015 48.4664V53.1971H38.2737V45.4102H39.6554C39.7705 45.4102 39.8656 45.4202 39.9407 45.4403C40.0208 45.4603 40.0859 45.4928 40.136 45.5379C40.191 45.5779 40.2311 45.633 40.2561 45.7031C40.2861 45.7732 40.3112 45.8583 40.3312 45.9584L40.4513 46.6117Z" fill="#FFA500"/>
<path d="M48.7195 48.3688C48.7195 48.1836 48.6945 48.0034 48.6444 47.8282C48.5994 47.6529 48.5218 47.4978 48.4117 47.3626C48.3065 47.2224 48.1664 47.1098 47.9912 47.0247C47.8159 46.9396 47.6032 46.897 47.3529 46.897C46.9124 46.897 46.5669 47.0247 46.3166 47.28C46.0663 47.5303 45.9011 47.8932 45.821 48.3688H48.7195ZM45.791 49.7204C45.8661 50.3712 46.0638 50.8443 46.3842 51.1397C46.7046 51.43 47.1176 51.5752 47.6232 51.5752C47.8935 51.5752 48.1263 51.5426 48.3216 51.4776C48.5168 51.4125 48.6895 51.3399 48.8397 51.2598C48.9949 51.1797 49.135 51.1071 49.2602 51.042C49.3903 50.977 49.5255 50.9444 49.6657 50.9444C49.8509 50.9444 49.9911 51.012 50.0862 51.1472L50.762 51.9807C50.5217 52.256 50.2614 52.4813 49.9811 52.6565C49.7057 52.8267 49.4204 52.9619 49.125 53.062C48.8347 53.1571 48.5418 53.2222 48.2465 53.2572C47.9561 53.2973 47.6783 53.3173 47.413 53.3173C46.8673 53.3173 46.3542 53.2297 45.8736 53.0545C45.398 52.8743 44.98 52.6089 44.6196 52.2585C44.2642 51.9081 43.9813 51.4726 43.7711 50.9519C43.5658 50.4313 43.4632 49.8256 43.4632 49.1347C43.4632 48.6141 43.5508 48.121 43.726 47.6554C43.9062 47.1899 44.1615 46.7819 44.4919 46.4315C44.8273 46.081 45.2303 45.8032 45.7009 45.598C46.1765 45.3927 46.7121 45.2901 47.3078 45.2901C47.8235 45.2901 48.294 45.3702 48.7195 45.5304C49.1501 45.6906 49.518 45.9234 49.8234 46.2287C50.1337 46.5341 50.374 46.9095 50.5442 47.3551C50.7195 47.7956 50.8071 48.2962 50.8071 48.8569C50.8071 49.0321 50.7996 49.1748 50.7845 49.2849C50.7695 49.395 50.742 49.4827 50.7019 49.5477C50.6619 49.6128 50.6068 49.6579 50.5367 49.6829C50.4717 49.7079 50.3866 49.7204 50.2814 49.7204H45.791Z" fill="#FFA500"/>
<path d="M54.1495 46.6117C54.3898 46.1912 54.6652 45.8608 54.9755 45.6205C55.2909 45.3802 55.6514 45.26 56.0568 45.26C56.4073 45.26 56.6926 45.3426 56.9129 45.5078L56.7627 47.2199C56.7377 47.3301 56.6951 47.4051 56.635 47.4452C56.58 47.4852 56.5024 47.5053 56.4023 47.5053C56.3622 47.5053 56.3096 47.5028 56.2446 47.4978C56.1795 47.4927 56.1119 47.4877 56.0418 47.4827C55.9717 47.4727 55.8992 47.4652 55.8241 47.4602C55.754 47.4502 55.6889 47.4452 55.6288 47.4452C55.2884 47.4452 55.0156 47.5353 54.8103 47.7155C54.6101 47.8957 54.4399 48.146 54.2997 48.4664V53.1971H51.9719V45.4102H53.3536C53.4687 45.4102 53.5638 45.4202 53.6389 45.4403C53.719 45.4603 53.7841 45.4928 53.8342 45.5379C53.8892 45.5779 53.9293 45.633 53.9543 45.7031C53.9843 45.7732 54.0094 45.8583 54.0294 45.9584L54.1495 46.6117Z" fill="#FFA500"/>
<path d="M62.6549 47.1148C62.5948 47.2099 62.5297 47.2775 62.4596 47.3175C62.3945 47.3576 62.3094 47.3776 62.2043 47.3776C62.0942 47.3776 61.984 47.3551 61.8739 47.31C61.7638 47.26 61.6436 47.2074 61.5135 47.1523C61.3883 47.0973 61.2456 47.0472 61.0855 47.0022C60.9253 46.9521 60.7425 46.9271 60.5373 46.9271C60.2419 46.9271 60.0142 46.9846 59.854 47.0998C59.6988 47.2099 59.6212 47.3651 59.6212 47.5653C59.6212 47.7105 59.6713 47.8307 59.7714 47.9258C59.8765 48.0209 60.0142 48.106 60.1844 48.1811C60.3546 48.2512 60.5473 48.3187 60.7626 48.3838C60.9778 48.4489 61.1981 48.5215 61.4234 48.6016C61.6486 48.6817 61.8689 48.7768 62.0842 48.8869C62.2994 48.9921 62.4922 49.1247 62.6624 49.2849C62.8326 49.4401 62.9677 49.6303 63.0679 49.8556C63.173 50.0809 63.2255 50.3512 63.2255 50.6666C63.2255 51.0521 63.1555 51.4075 63.0153 51.7329C62.8751 52.0583 62.6649 52.3386 62.3845 52.5739C62.1092 52.8092 61.7663 52.9919 61.3558 53.1221C60.9503 53.2522 60.4822 53.3173 59.9516 53.3173C59.6863 53.3173 59.4209 53.2923 59.1556 53.2422C58.8903 53.1921 58.6325 53.1246 58.3822 53.0395C58.1369 52.9543 57.9091 52.8542 57.6989 52.7391C57.4886 52.6189 57.3084 52.4913 57.1582 52.3561L57.6989 51.5001C57.7589 51.4 57.834 51.3224 57.9241 51.2673C58.0193 51.2072 58.1394 51.1772 58.2846 51.1772C58.4197 51.1772 58.5399 51.2072 58.645 51.2673C58.7551 51.3274 58.8728 51.3925 58.9979 51.4625C59.1231 51.5326 59.2683 51.5977 59.4335 51.6578C59.6037 51.7179 59.8164 51.7479 60.0717 51.7479C60.2519 51.7479 60.4046 51.7304 60.5298 51.6953C60.6549 51.6553 60.7551 51.6027 60.8301 51.5376C60.9052 51.4726 60.9603 51.4 60.9953 51.3199C61.0304 51.2398 61.0479 51.1572 61.0479 51.0721C61.0479 50.9169 60.9953 50.7892 60.8902 50.6891C60.7851 50.589 60.6474 50.5039 60.4772 50.4338C60.307 50.3587 60.1118 50.2911 59.8915 50.2311C59.6763 50.166 59.456 50.0934 59.2307 50.0133C59.0054 49.9332 58.7827 49.8381 58.5624 49.7279C58.3471 49.6128 58.1544 49.4701 57.9842 49.2999C57.814 49.1247 57.6763 48.912 57.5712 48.6617C57.4661 48.4114 57.4135 48.1085 57.4135 47.7531C57.4135 47.4227 57.4761 47.1098 57.6012 46.8144C57.7314 46.5141 57.9241 46.2512 58.1794 46.026C58.4348 45.8007 58.7551 45.623 59.1406 45.4928C59.5261 45.3577 59.9766 45.2901 60.4922 45.2901C60.7726 45.2901 61.0429 45.3151 61.3032 45.3652C61.5685 45.4152 61.8163 45.4853 62.0466 45.5754C62.2769 45.6655 62.4871 45.7732 62.6774 45.8983C62.8676 46.0185 63.0353 46.1511 63.1805 46.2963L62.6549 47.1148Z" fill="#FFA500"/>
<path fill-rule="evenodd" clip-rule="evenodd" d="M76.5708 12.1657C76.1641 12.9005 75.9248 13.9019 76.0392 14.3908C76.3543 15.7375 83.1457 22.1806 84.0312 21.9734C85.6564 21.5931 84.953 19.8127 82.0689 17.0058C80.4223 15.4036 79.189 13.91 79.3276 13.6868C79.466 13.463 89.0026 12.2672 100.519 11.0289C112.036 9.79073 121.662 8.72719 121.909 8.66545C122.157 8.60432 122.422 8.81887 122.498 9.14318C122.663 9.84907 101.89 46.2358 101.077 46.6653C100.145 47.1581 96.4028 36.3517 96.4796 33.3893C96.5846 29.3387 99.1469 25.9962 105.051 22.2113C109.24 19.525 110.113 18.7099 109.876 17.7007C109.514 16.1515 108.065 16.7462 101.784 21.0243C92.6582 27.2399 91.618 31.7751 96.4448 44.2967C98.4564 49.5159 99.1324 50.2307 101.526 49.6707C103.435 49.2238 103.525 49.0819 117.689 24.2704C126.078 9.57586 126.775 7.61271 124.081 6.26882C123.252 5.85504 82.0748 9.75992 78.2739 10.6131C77.7441 10.732 76.9774 11.4309 76.5708 12.1657ZM80.0848 31.0004C77.3137 32.8009 76.1551 33.9063 76.3166 34.5965C76.7162 36.3043 77.2846 36.1954 81.4577 33.6122C86.0719 30.7566 87.5512 29.2965 86.6984 28.4399C85.8474 27.5855 84.5962 28.0697 80.0848 31.0004ZM81.0435 38.4638C76.5769 41.4501 74.1907 43.4092 74.2172 44.0687C74.2922 45.9599 75.9502 45.3259 82.8519 40.7657C90.8071 35.5102 91.1506 35.2092 90.4172 34.1289C89.6126 32.9431 88.6028 33.4102 81.0435 38.4638Z" fill="#FFA500"/>
<path fill-rule="evenodd" clip-rule="evenodd" d="M76.5706 12.1659C76.1639 12.9007 75.9246 13.9021 76.039 14.391C76.3541 15.7377 83.1455 22.1808 84.031 21.9736C85.6562 21.5933 84.9528 19.8129 82.0687 17.006C80.4222 15.4038 79.1889 13.9102 79.3274 13.687C79.4658 13.4632 89.0024 12.2674 100.519 11.0291C112.035 9.79093 121.661 8.72739 121.909 8.66565C122.157 8.60452 122.422 8.81907 122.498 9.14338C122.663 9.84928 101.89 46.236 101.076 46.6655C100.145 47.1583 96.4026 36.3519 96.4794 33.3895C96.5845 29.3389 99.1467 25.9964 105.05 22.2115C109.24 19.5252 110.112 18.7101 109.876 17.701C109.514 16.1517 108.065 16.7464 101.784 21.0245C92.658 27.2401 91.6179 31.7753 96.4446 44.2969C98.4563 49.5161 99.1322 50.2309 101.525 49.6709C103.435 49.224 103.525 49.0821 117.689 24.2706C126.077 9.57606 126.775 7.61291 124.081 6.26903C123.252 5.85524 82.0746 9.76012 78.2737 10.6133C77.7439 10.7322 76.9772 11.4311 76.5706 12.1659Z" fill="#0336FF"/>
</svg>
