<svg width="24" height="17" viewBox="0 0 24 17" fill="none" xmlns="http://www.w3.org/2000/svg">
<path d="M17.302 5.82073C17.302 2.66359 13.5418 0.106445 8.90102 0.106445C4.26026 0.106445 0.5 2.66359 0.5 5.82073C0.5 7.04573 1.06949 8.1743 2.0348 9.10645C1.49358 10.185 0.600974 11.0422 0.588857 11.0529C0.5 11.135 0.475766 11.2564 0.528273 11.3636C0.580779 11.4707 0.69387 11.535 0.823116 11.535C2.30137 11.535 3.52518 11.0957 4.40567 10.6422C5.70621 11.2029 7.24505 11.535 8.90102 11.535C13.5418 11.535 17.302 8.97787 17.302 5.82073ZM22.2296 13.6779C23.1949 12.7493 23.7644 11.6172 23.7644 10.3922C23.7644 8.00287 21.6035 5.95645 18.542 5.10287C18.5784 5.33859 18.5945 5.57787 18.5945 5.82073C18.5945 9.60287 14.2446 12.6779 8.90102 12.6779C8.46481 12.6779 8.04072 12.6493 7.62067 12.61C8.89294 14.6636 11.8818 16.1064 15.3633 16.1064C17.0193 16.1064 18.5582 15.7779 19.8587 15.2136C20.7392 15.6672 21.963 16.1064 23.4413 16.1064C23.5705 16.1064 23.6876 16.0386 23.7361 15.935C23.7886 15.8314 23.7644 15.71 23.6755 15.6243C23.6634 15.6136 22.7708 14.76 22.2296 13.6779Z" fill="#FFA500"/>
</svg>
