<svg width="20" height="26" viewBox="0 0 20 26" fill="none" xmlns="http://www.w3.org/2000/svg">
<path d="M8.91152 25.4754C1.81689 14.7789 0.5 13.6811 0.5 9.75C0.5 4.36521 4.69731 0 9.875 0C15.0527 0 19.25 4.36521 19.25 9.75C19.25 13.6811 17.9331 14.7789 10.8385 25.4754C10.3729 26.1749 9.37705 26.1748 8.91152 25.4754ZM9.875 13.8125C12.0324 13.8125 13.7812 11.9937 13.7812 9.75C13.7812 7.50633 12.0324 5.6875 9.875 5.6875C7.71763 5.6875 5.96875 7.50633 5.96875 9.75C5.96875 11.9937 7.71763 13.8125 9.875 13.8125Z" fill="#FFA500"/>
</svg>
