<svg width="24" height="17" viewBox="0 0 24 17" fill="none" xmlns="http://www.w3.org/2000/svg">
<path d="M17.302 5.92718C17.302 2.77003 13.5418 0.212891 8.90102 0.212891C4.26026 0.212891 0.5 2.77003 0.5 5.92718C0.5 7.15218 1.06949 8.28075 2.0348 9.21289C1.49358 10.2915 0.600974 11.1486 0.588857 11.1593C0.5 11.2415 0.475766 11.3629 0.528273 11.47C0.580779 11.5772 0.69387 11.6415 0.823116 11.6415C2.30137 11.6415 3.52518 11.2022 4.40567 10.7486C5.70621 11.3093 7.24505 11.6415 8.90102 11.6415C13.5418 11.6415 17.302 9.08432 17.302 5.92718ZM22.2296 13.7843C23.1949 12.8557 23.7644 11.7236 23.7644 10.4986C23.7644 8.10932 21.6035 6.06289 18.542 5.20932C18.5784 5.44503 18.5945 5.68432 18.5945 5.92718C18.5945 9.70932 14.2446 12.7843 8.90102 12.7843C8.46481 12.7843 8.04072 12.7557 7.62067 12.7165C8.89294 14.77 11.8818 16.2129 15.3633 16.2129C17.0193 16.2129 18.5582 15.8843 19.8587 15.32C20.7392 15.7736 21.963 16.2129 23.4413 16.2129C23.5705 16.2129 23.6876 16.145 23.7361 16.0415C23.7886 15.9379 23.7644 15.8165 23.6755 15.7307C23.6634 15.72 22.7708 14.8665 22.2296 13.7843Z" fill="#FFA500"/>
</svg>
