<svg width="20" height="27" viewBox="0 0 20 27" fill="none" xmlns="http://www.w3.org/2000/svg">
<path d="M8.91152 25.6883C1.81689 14.9918 0.5 13.894 0.5 9.96289C0.5 4.5781 4.69731 0.212891 9.875 0.212891C15.0527 0.212891 19.25 4.5781 19.25 9.96289C19.25 13.894 17.9331 14.9918 10.8385 25.6883C10.3729 26.3878 9.37705 26.3877 8.91152 25.6883ZM9.875 14.0254C12.0324 14.0254 13.7812 12.2066 13.7812 9.96289C13.7812 7.71922 12.0324 5.90039 9.875 5.90039C7.71763 5.90039 5.96875 7.71922 5.96875 9.96289C5.96875 12.2066 7.71763 14.0254 9.875 14.0254Z" fill="#FFA500"/>
</svg>
