<svg width="24" height="17" viewBox="0 0 24 17" fill="none" xmlns="http://www.w3.org/2000/svg">
<path d="M16.802 5.92718C16.802 2.77003 13.0418 0.212891 8.40102 0.212891C3.76026 0.212891 0 2.77003 0 5.92718C0 7.15218 0.569492 8.28075 1.5348 9.21289C0.993582 10.2915 0.100974 11.1486 0.088857 11.1593C0 11.2415 -0.0242337 11.3629 0.0282727 11.47C0.0807791 11.5772 0.19387 11.6415 0.323116 11.6415C1.80137 11.6415 3.02518 11.2022 3.90567 10.7486C5.20621 11.3093 6.74505 11.6415 8.40102 11.6415C13.0418 11.6415 16.802 9.08432 16.802 5.92718ZM21.7296 13.7843C22.6949 12.8557 23.2644 11.7236 23.2644 10.4986C23.2644 8.10932 21.1035 6.06289 18.042 5.20932C18.0784 5.44503 18.0945 5.68432 18.0945 5.92718C18.0945 9.70932 13.7446 12.7843 8.40102 12.7843C7.96481 12.7843 7.54072 12.7557 7.12067 12.7165C8.39294 14.77 11.3818 16.2129 14.8633 16.2129C16.5193 16.2129 18.0582 15.8843 19.3587 15.32C20.2392 15.7736 21.463 16.2129 22.9413 16.2129C23.0705 16.2129 23.1876 16.145 23.2361 16.0415C23.2886 15.9379 23.2644 15.8165 23.1755 15.7307C23.1634 15.72 22.2708 14.8665 21.7296 13.7843Z" fill="#FFA500"/>
</svg>
