<svg width="19" height="27" viewBox="0 0 19 27" fill="none" xmlns="http://www.w3.org/2000/svg">
<path d="M8.41152 25.6883C1.31689 14.9918 0 13.894 0 9.96289C0 4.5781 4.19731 0.212891 9.375 0.212891C14.5527 0.212891 18.75 4.5781 18.75 9.96289C18.75 13.894 17.4331 14.9918 10.3385 25.6883C9.8729 26.3878 8.87705 26.3877 8.41152 25.6883ZM9.375 14.0254C11.5324 14.0254 13.2812 12.2066 13.2812 9.96289C13.2812 7.71922 11.5324 5.90039 9.375 5.90039C7.21763 5.90039 5.46875 7.71922 5.46875 9.96289C5.46875 12.2066 7.21763 14.0254 9.375 14.0254Z" fill="#FFA500"/>
</svg>
