<svg width="20" height="25" viewBox="0 0 20 25" fill="none" xmlns="http://www.w3.org/2000/svg">
<path d="M8.85147 24.4956C1.75684 14.2105 0.439941 13.1549 0.439941 9.375C0.439941 4.19731 4.63726 0 9.81494 0C14.9926 0 19.1899 4.19731 19.1899 9.375C19.1899 13.1549 17.873 14.2105 10.7784 24.4956C10.3128 25.1682 9.31699 25.1681 8.85147 24.4956ZM9.81494 13.2812C11.9723 13.2812 13.7212 11.5324 13.7212 9.375C13.7212 7.21763 11.9723 5.46875 9.81494 5.46875C7.65757 5.46875 5.90869 7.21763 5.90869 9.375C5.90869 11.5324 7.65757 13.2812 9.81494 13.2812Z" fill="#FFA500"/>
</svg>
