<svg width="24" height="16" viewBox="0 0 24 16" fill="none" xmlns="http://www.w3.org/2000/svg">
<path d="M17.302 5.71453C17.302 2.55739 13.5418 0.000244141 8.90102 0.000244141C4.26026 0.000244141 0.5 2.55739 0.5 5.71453C0.5 6.93953 1.06949 8.0681 2.0348 9.00024C1.49358 10.0788 0.600974 10.936 0.588857 10.9467C0.5 11.0288 0.475766 11.1502 0.528273 11.2574C0.580779 11.3645 0.69387 11.4288 0.823116 11.4288C2.30137 11.4288 3.52518 10.9895 4.40567 10.536C5.70621 11.0967 7.24505 11.4288 8.90102 11.4288C13.5418 11.4288 17.302 8.87167 17.302 5.71453ZM22.2296 13.5717C23.1949 12.6431 23.7644 11.511 23.7644 10.286C23.7644 7.89667 21.6035 5.85024 18.542 4.99667C18.5784 5.23239 18.5945 5.47167 18.5945 5.71453C18.5945 9.49667 14.2446 12.5717 8.90102 12.5717C8.46481 12.5717 8.04072 12.5431 7.62067 12.5038C8.89294 14.5574 11.8818 16.0002 15.3633 16.0002C17.0193 16.0002 18.5582 15.6717 19.8587 15.1074C20.7392 15.561 21.963 16.0002 23.4413 16.0002C23.5705 16.0002 23.6876 15.9324 23.7361 15.8288C23.7886 15.7252 23.7644 15.6038 23.6755 15.5181C23.6634 15.5074 22.7708 14.6538 22.2296 13.5717Z" fill="#FFA500"/>
</svg>
