<svg width="20" height="27" viewBox="0 0 20 27" fill="none" xmlns="http://www.w3.org/2000/svg">
<path d="M8.91152 25.5819C1.81689 14.8854 0.5 13.7876 0.5 9.85645C0.5 4.47165 4.69731 0.106445 9.875 0.106445C15.0527 0.106445 19.25 4.47165 19.25 9.85645C19.25 13.7876 17.9331 14.8854 10.8385 25.5819C10.3729 26.2813 9.37705 26.2813 8.91152 25.5819ZM9.875 13.9189C12.0324 13.9189 13.7812 12.1001 13.7812 9.85645C13.7812 7.61278 12.0324 5.79395 9.875 5.79395C7.71763 5.79395 5.96875 7.61278 5.96875 9.85645C5.96875 12.1001 7.71763 13.9189 9.875 13.9189Z" fill="#FFA500"/>
</svg>
