<svg width="19" height="43" viewBox="0 0 19 43" fill="none" xmlns="http://www.w3.org/2000/svg">
<path d="M8.53652 41.2217C1.44189 23.9137 0.125 22.1374 0.125 15.7765C0.125 7.06333 4.32231 0 9.5 0C14.6777 0 18.875 7.06333 18.875 15.7765C18.875 22.1374 17.5581 23.9137 10.4635 41.2217C9.9979 42.3535 9.00205 42.3535 8.53652 41.2217ZM9.5 22.35C11.6574 22.35 13.4062 19.4069 13.4062 15.7765C13.4062 12.146 11.6574 9.20293 9.5 9.20293C7.34263 9.20293 5.59375 12.146 5.59375 15.7765C5.59375 19.4069 7.34263 22.35 9.5 22.35Z" fill="#FFA500"/>
</svg>
