<svg width="19" height="26" viewBox="0 0 19 26" fill="none" xmlns="http://www.w3.org/2000/svg">
<path d="M8.41152 24.7085C1.31689 14.4234 0 13.3678 0 9.58789C0 4.41021 4.19731 0.212891 9.375 0.212891C14.5527 0.212891 18.75 4.41021 18.75 9.58789C18.75 13.3678 17.4331 14.4234 10.3385 24.7085C9.8729 25.3811 8.87705 25.381 8.41152 24.7085ZM9.375 13.4941C11.5324 13.4941 13.2812 11.7453 13.2812 9.58789C13.2812 7.43052 11.5324 5.68164 9.375 5.68164C7.21763 5.68164 5.46875 7.43052 5.46875 9.58789C5.46875 11.7453 7.21763 13.4941 9.375 13.4941Z" fill="#FFA500"/>
</svg>
