<svg width="24" height="16" viewBox="0 0 24 16" fill="none" xmlns="http://www.w3.org/2000/svg">
<path d="M17.242 5.71453C17.242 2.55739 13.4817 0.000244141 8.84096 0.000244141C4.20021 0.000244141 0.439941 2.55739 0.439941 5.71453C0.439941 6.93953 1.00943 8.0681 1.97474 9.00024C1.43352 10.0788 0.540915 10.936 0.528798 10.9467C0.439941 11.0288 0.415708 11.1502 0.468214 11.2574C0.52072 11.3645 0.633811 11.4288 0.763058 11.4288C2.24131 11.4288 3.46512 10.9895 4.34561 10.536C5.64615 11.0967 7.18499 11.4288 8.84096 11.4288C13.4817 11.4288 17.242 8.87167 17.242 5.71453ZM22.1695 13.5717C23.1348 12.6431 23.7043 11.511 23.7043 10.286C23.7043 7.89667 21.5435 5.85024 18.4819 4.99667C18.5183 5.23239 18.5344 5.47167 18.5344 5.71453C18.5344 9.49667 14.1845 12.5717 8.84096 12.5717C8.40476 12.5717 7.98067 12.5431 7.56062 12.5038C8.83289 14.5574 11.8217 16.0002 15.3033 16.0002C16.9593 16.0002 18.4981 15.6717 19.7986 15.1074C20.6791 15.561 21.9029 16.0002 23.3812 16.0002C23.5104 16.0002 23.6276 15.9324 23.676 15.8288C23.7285 15.7252 23.7043 15.6038 23.6155 15.5181C23.6033 15.5074 22.7107 14.6538 22.1695 13.5717Z" fill="#FFA500"/>
</svg>
